<svg width="176" height="43" viewBox="0 0 176 43" fill="none" xmlns="http://www.w3.org/2000/svg">
<path d="M149.451 15.65C150.651 15.65 151.751 15.35 152.651 14.75C153.501 14.15 153.951 13.25 153.951 12.05C153.951 11 153.501 10.15 152.701 9.45C151.851 8.8 150.751 8.45 149.451 8.45C148.051 8.45 147.001 8.8 146.201 9.45C145.351 10.15 144.951 11 144.951 12.05C144.951 13.25 145.351 14.15 146.251 14.75C147.101 15.35 148.151 15.65 149.451 15.65ZM149.451 23.3C145.301 23.3 142.101 22.3 139.851 20.3C137.551 18.3 136.451 15.55 136.451 12.05C136.451 8.65 137.551 5.95 139.851 3.85C142.101 1.8 145.301 0.75 149.451 0.75C153.551 0.75 156.751 1.8 159.051 3.85C160.551 5.3 161.551 6.95 162.051 8.95C162.701 8.95 163.401 8.95 164.201 8.9C165.001 8.9 165.751 8.85 166.451 8.75V1.25H175.201V23.85H166.451V16.2C165.501 16.4 164.451 16.55 163.251 16.55C162.701 16.6 162.151 16.65 161.651 16.65C161.051 18.05 160.201 19.3 159.051 20.3C156.751 22.3 153.551 23.3 149.451 23.3ZM158.251 36.3C159.851 36.3 161.151 36.25 162.201 36.15C163.201 36.05 164.001 35.9 164.601 35.7C165.201 35.5 165.601 35.25 165.851 34.95C166.051 34.65 166.151 34.3 166.151 33.9C166.151 33.55 166.051 33.2 165.851 32.9C165.601 32.6 165.201 32.35 164.601 32.15C164.001 31.95 163.201 31.8 162.201 31.65C161.151 31.55 159.851 31.5 158.251 31.5C156.601 31.5 155.251 31.55 154.251 31.65C153.201 31.8 152.401 31.95 151.851 32.15C151.251 32.35 150.851 32.6 150.651 32.9C150.451 33.2 150.351 33.55 150.351 33.9C150.351 34.3 150.451 34.65 150.651 34.95C150.851 35.25 151.251 35.5 151.851 35.7C152.401 35.9 153.201 36.05 154.251 36.15C155.251 36.25 156.601 36.3 158.251 36.3ZM158.251 43C154.801 43 151.951 42.75 149.701 42.35C147.401 41.9 145.551 41.3 144.251 40.5C142.851 39.7 141.901 38.75 141.401 37.6C140.801 36.5 140.551 35.3 140.551 33.9C140.551 32.65 140.801 31.45 141.401 30.35C141.951 29.25 142.901 28.3 144.301 27.45C145.651 26.65 147.451 26 149.751 25.5C152.001 25.05 154.851 24.8 158.251 24.8C161.601 24.8 164.401 25.05 166.701 25.5C168.951 26 170.751 26.65 172.151 27.45C173.501 28.3 174.501 29.25 175.101 30.35C175.651 31.45 175.951 32.65 175.951 33.9C175.951 35.3 175.651 36.5 175.101 37.6C174.501 38.75 173.551 39.7 172.201 40.5C170.851 41.3 169.051 41.9 166.801 42.35C164.501 42.75 161.651 43 158.251 43Z" fill="#7B6A58"/>
<path d="M121.669 1.5H130.419V22.15H94.2689V1.5H103.019V4.75H121.669V1.5ZM103.019 12V14.9H121.669V12H103.019ZM107.169 41.55V33.35H91.5688V25.6H132.919V33.35H116.819V41.55H107.169Z" fill="#7B6A58"/>
<path d="M66.3344 13.45H45.4844V6H52.0344V0H59.7844V6H66.3344V13.45ZM55.9844 32.7C56.6844 32.7 57.2344 32.3 57.7344 31.45C58.1344 30.65 58.3844 29.35 58.3844 27.55C58.3844 25.85 58.1344 24.55 57.7344 23.65C57.2344 22.85 56.6844 22.4 55.9844 22.4C55.2344 22.4 54.6344 22.85 54.2344 23.65C53.7844 24.55 53.5844 25.85 53.5844 27.55C53.5844 29.35 53.7844 30.65 54.2844 31.45C54.6844 32.3 55.2844 32.7 55.9844 32.7ZM55.9844 40.2C52.6844 40.2 50.1344 39.2 48.4344 37.15C46.6844 35.15 45.8344 31.95 45.8344 27.55C45.8344 23.35 46.7344 20.2 48.5844 18.05C50.3844 15.95 52.8844 14.9 55.9844 14.9C59.0844 14.9 61.5344 15.95 63.3844 18.05C65.1844 20.2 66.1344 23.35 66.1344 27.55C66.1344 31.95 65.2344 35.15 63.5344 37.15C61.7344 39.2 59.2344 40.2 55.9844 40.2ZM79.6344 23.1C78.7844 23.3 77.8344 23.5 76.8344 23.55V41.7H68.8844V1.25H76.8344V15.05H79.6344V1.25H87.5344V41.7H79.6344V23.1Z" fill="#5E9D96"/>
<path d="M24.55 19.6H0V1.65H24.55V19.6ZM16.3 13.35V7.9H8.25V13.35H16.3ZM42.95 5.9V14.55C42.55 14.55 42.05 14.6 41.5 14.6C40.9 14.65 40.3 14.7 39.75 14.8C39.15 14.9 38.6 14.95 38.1 15.05C37.75 15.15 37.5 15.25 37.3 15.35V20.1H28.6V1.25H37.3V7.05C37.85 6.7 38.5 6.4 39.35 6.2C40.25 6 41.45 5.9 42.95 5.9ZM1.5 28.7H28.8V27.3H1.75V21.6H37.3V34.15H10V35.7H37.8V41.4H1.5V28.7Z" fill="#5E9D96"/>
</svg>
