<svg width="981" height="608" viewBox="0 0 981 608" fill="none" xmlns="http://www.w3.org/2000/svg">
<g opacity="0.4" filter="url(#filter0_f_1365_4313)">
<rect x="609" y="10" width="362" height="120" rx="8" fill="white" fill-opacity="0.1"/>
<rect x="610" y="11" width="360" height="118" rx="7" stroke="#1A1D1F" stroke-width="2"/>
<path d="M637.5 47V46.25H632.257L632.25 49.25C632.25 50.0825 632.918 50.75 633.75 50.75H644.25C645.083 50.75 645.75 50.0825 645.75 49.25V46.25H640.5V47H637.5ZM645 40.25H641.993V38.75L640.493 37.25H637.492L635.992 38.75V40.25H633C632.175 40.25 631.5 40.925 631.5 41.75V44C631.5 44.8325 632.168 45.5 633 45.5H637.5V44H640.5V45.5H645C645.825 45.5 646.5 44.825 646.5 44V41.75C646.5 40.925 645.825 40.25 645 40.25ZM640.5 40.25H637.5V38.75H640.5V40.25Z" fill="#5B7FA6"/>
<path d="M659.205 39.4883C659.188 42.3184 660.611 45.2012 663.072 46.3789L661.877 47.9434C660.154 47.0732 658.915 45.3945 658.238 43.373C657.544 45.5352 656.243 47.3281 654.424 48.2422L653.229 46.6777C655.777 45.4648 657.236 42.4238 657.254 39.4883V36.957H659.205V39.4883ZM665.973 35.6738V41.8965H668.416V43.5664H665.973V51.5645H664.021V35.6738H665.973ZM682.725 35.6738V51.5645H680.844V43.5312H679.086V50.7559H677.258V35.9727H679.086V41.9316H680.844V35.6738H682.725ZM671.738 37.502V45.8867C673.109 45.8604 674.612 45.7461 676.273 45.4121L676.467 47.1172C674.322 47.5039 672.512 47.6094 670.824 47.6094H669.77V37.502H671.738ZM697.227 35.6914V39.875H699.371V41.4922H697.227V45.7109H695.275V35.6914H697.227ZM691.971 45.9043C695.275 45.9043 697.297 46.9238 697.314 48.7344C697.297 50.4922 695.275 51.5469 691.971 51.5469C688.648 51.5469 686.609 50.4922 686.609 48.7344C686.609 46.9238 688.648 45.9043 691.971 45.9043ZM691.971 47.3809C689.756 47.3809 688.508 47.8555 688.525 48.7344C688.508 49.5781 689.756 50.0352 691.971 50.0352C694.115 50.0352 695.363 49.5781 695.381 48.7344C695.363 47.8555 694.115 47.3809 691.971 47.3809ZM684.605 43.3906C685.757 43.3906 687.093 43.3818 688.49 43.3379V42.125C686.653 41.8438 685.449 40.7275 685.467 39.1895C685.449 37.4141 687.084 36.2012 689.439 36.1836C691.777 36.2012 693.412 37.4141 693.43 39.1895C693.412 40.71 692.243 41.8086 690.459 42.1074V43.2676C691.786 43.1973 693.113 43.083 694.344 42.916L694.52 44.2871C691.215 44.8672 687.523 44.9199 684.816 44.9199L684.605 43.3906ZM689.439 37.6602C688.139 37.6602 687.277 38.2227 687.295 39.1895C687.277 40.1562 688.139 40.7715 689.439 40.7715C690.705 40.7715 691.566 40.1562 691.584 39.1895C691.566 38.2227 690.705 37.6602 689.439 37.6602ZM712.941 35.6387V41.7207H714.998V43.3555H712.941V51.5645H710.99V35.6387H712.941ZM704.662 37.291V38.873H702.518V45.9395C703.229 45.9043 703.959 45.834 704.785 45.6758L704.943 47.2754C703.572 47.5391 702.5 47.5742 701.34 47.5742H700.566V37.291H704.662ZM709.795 37.291V38.873H707.439V45.9395C708.512 45.9219 709.268 45.8428 710.111 45.6406L710.27 47.2402C709.092 47.5391 708.125 47.5742 706.332 47.5742H705.523V37.291H709.795ZM725.703 39.4883C725.686 42.3184 727.109 45.2012 729.57 46.3789L728.375 47.9434C726.652 47.0732 725.413 45.3945 724.736 43.373C724.042 45.5352 722.741 47.3281 720.922 48.2422L719.727 46.6777C722.275 45.4648 723.734 42.4238 723.752 39.4883V36.957H725.703V39.4883ZM732.471 35.6738V41.8965H734.914V43.5664H732.471V51.5645H730.52V35.6738H732.471ZM748.889 35.6914V47.3457H746.938V42.002H743.879V40.3848H746.938V35.6914H748.889ZM743.984 36.8867C743.984 41.0703 741.207 44.2168 736.619 45.6758L735.793 44.1113C739.221 43.0215 741.479 41 741.857 38.4863H736.619V36.8867H743.984ZM749.293 49.666V51.248H738.535V46.168H740.521V49.666H749.293Z" fill="#1A1D1F"/>
<path d="M635.527 67.9668V76.8809H634.461V67.9668H635.527ZM635.91 78.9453V79.8477H627.68V76.0605H628.746V78.9453H635.91ZM629.799 69.8672C629.785 71.7129 631.057 73.3809 632.861 74.0371L632.301 74.8984C630.893 74.3584 629.799 73.2646 629.266 71.8633C628.726 73.3535 627.618 74.5498 626.203 75.1172L625.615 74.2832C627.461 73.5723 628.705 71.7812 628.705 69.8672V68.6504H629.799V69.8672ZM647.627 67.9531V74.4746H646.561V67.9531H647.627ZM640.818 75.0898V76.5664H646.561V75.0898H647.627V79.9434H639.752V75.0898H640.818ZM640.818 79.0684H646.561V77.4277H640.818V79.0684ZM641.064 68.5547C642.91 68.541 644.25 69.6758 644.25 71.3438C644.25 72.998 642.91 74.1328 641.064 74.1328C639.219 74.1328 637.879 72.998 637.879 71.3438C637.879 69.6758 639.219 68.541 641.064 68.5547ZM641.064 69.457C639.82 69.4434 638.918 70.2363 638.932 71.3438C638.918 72.4512 639.82 73.2441 641.064 73.2441C642.295 73.2441 643.197 72.4512 643.197 71.3438C643.197 70.2363 642.295 69.4434 641.064 69.457ZM653.766 71.2207C653.766 73.3672 655.188 75.5684 656.91 76.416L656.254 77.2773C654.914 76.5732 653.793 75.1377 653.26 73.4492C652.713 75.2471 651.564 76.7783 650.197 77.5098L649.514 76.6484C651.291 75.7734 652.699 73.4355 652.713 71.2207V69.0059H653.766V71.2207ZM659.098 67.9531V72.8887H661.135V73.8184H659.098V80.1074H658.031V67.9531H659.098ZM671.812 67.9668V77.1953H670.732V75.9375H668.217V75.1582H670.732V67.9668H671.812ZM672.113 78.9453V79.8477H663.473V76.293H664.553V78.9453H672.113ZM661.723 73.5996C663.992 73.5859 667.027 73.5723 669.639 73.2441L669.707 74.0234C668.62 74.1943 667.485 74.3037 666.371 74.3652V76.7715H665.291V74.4199C664.061 74.4746 662.892 74.4814 661.873 74.4746L661.723 73.5996ZM665.715 68.459C667.492 68.459 668.709 69.3066 668.723 70.5781C668.709 71.877 667.492 72.6836 665.715 72.6836C663.924 72.6836 662.707 71.877 662.707 70.5781C662.707 69.3066 663.924 68.459 665.715 68.459ZM665.715 69.2793C664.525 69.2656 663.719 69.7988 663.732 70.5781C663.719 71.3711 664.525 71.8906 665.715 71.8906C666.863 71.8906 667.684 71.3711 667.697 70.5781C667.684 69.7988 666.863 69.2656 665.715 69.2793ZM683.926 67.9668V76.8535H682.859V67.9668H683.926ZM684.309 78.9453V79.8477H676.078V75.9512H677.145V78.9453H684.309ZM677.363 68.8145C679.182 68.8145 680.549 70.0449 680.549 71.7949C680.549 73.5723 679.182 74.7891 677.363 74.7891C675.545 74.7891 674.178 73.5723 674.178 71.7949C674.178 70.0449 675.545 68.8145 677.363 68.8145ZM677.363 69.7578C676.133 69.7578 675.217 70.6055 675.23 71.7949C675.217 73.0117 676.133 73.8457 677.363 73.8457C678.566 73.8457 679.496 73.0117 679.496 71.7949C679.496 70.6055 678.566 69.7578 677.363 69.7578ZM699.895 67.9531V80.1074H698.869V67.9531H699.895ZM697.434 68.2539V79.4785H696.422V73.2168H694.371V72.3418H696.422V68.2539H697.434ZM693.072 71.4258C693.072 73.5312 694.016 75.623 695.697 76.5938L695.041 77.3867C693.845 76.6689 692.997 75.3564 692.58 73.8047C692.136 75.4795 691.254 76.9082 690.037 77.6738L689.354 76.8672C691.049 75.8555 692.033 73.6406 692.033 71.4258V70.2773H689.695V69.3887H695.301V70.2773H693.072V71.4258ZM712.732 77.6602V78.5488H701.604V77.6602H706.607V75.0352H702.916V68.8145H703.996V71.0156H710.312V68.8145H711.365V75.0352H707.66V77.6602H712.732ZM703.996 74.1602H710.312V71.8906H703.996V74.1602ZM717.818 71.6855C717.805 73.6406 719.213 75.7871 720.977 76.6211L720.361 77.4688C718.994 76.8057 717.839 75.3564 717.299 73.709C716.738 75.5 715.515 77.0723 714.154 77.7695L713.498 76.9219C715.248 76.0742 716.752 73.7637 716.766 71.6855V70.0996H713.936V69.2109H720.553V70.0996H717.818V71.6855ZM723.109 67.9531V72.875H725.146V73.791H723.109V80.1074H722.043V67.9531H723.109ZM735.209 67.9531V72.9023H737.178V73.8047H735.209V80.1074H734.143V67.9531H735.209ZM732.064 69.2656C732.064 72.7109 730.451 75.8418 726.486 77.7969L725.885 76.9492C729.029 75.3838 730.738 73.0459 730.984 70.168H726.445V69.2656H732.064ZM752.49 75.1309V76.0059H741.416V75.1309H746.42V74.1465C744.232 74.0781 743.002 73.4287 743.002 72.3145C743.002 71.1113 744.438 70.4688 746.953 70.4688C749.441 70.4688 750.891 71.1113 750.891 72.3145C750.891 73.4287 749.646 74.0713 747.486 74.1465V75.1309H752.49ZM751.26 78.959V79.8477H742.852V76.7852H743.932V78.959H751.26ZM751.848 69.0879V69.9355H741.99V69.0879H746.42V67.8164H747.486V69.0879H751.848ZM746.953 71.2617C745.107 71.2617 744.082 71.6309 744.096 72.3145C744.082 72.998 745.107 73.3672 746.953 73.3672C748.771 73.3672 749.811 72.998 749.811 72.3145C749.811 71.6309 748.771 71.2617 746.953 71.2617ZM763.018 67.9531V70.7559H764.85V71.6719H763.018V74.625H761.951V67.9531H763.018ZM755.088 68.582V70.373H758.629V68.582H759.695V74.0918H754.035V68.582H755.088ZM755.088 73.2168H758.629V71.2207H755.088V73.2168ZM756.387 75.1992V76.6758H761.951V75.1992H763.018V79.9434H755.32V75.1992H756.387ZM756.387 79.0684H761.951V77.5371H756.387V79.0684ZM771.152 68.1719C773.859 68.1719 775.445 68.9102 775.445 70.2637C775.445 71.6445 773.859 72.3828 771.152 72.3965C768.445 72.3828 766.846 71.6445 766.846 70.2637C766.846 68.9102 768.445 68.1719 771.152 68.1719ZM771.152 68.9785C769.129 68.9785 767.953 69.4707 767.967 70.2637C767.953 71.1113 769.129 71.5762 771.152 71.5762C773.162 71.5762 774.352 71.1113 774.352 70.2637C774.352 69.4707 773.162 68.9785 771.152 68.9785ZM776.689 73.2168V74.0918H765.615V73.2168H776.689ZM775.268 75.1445V77.8652H768.049V79.123H775.637V79.9707H766.982V77.0723H774.215V75.9648H766.955V75.1445H775.268ZM790.635 67.9531V72.9707H792.672V73.8594H790.635V80.1074H789.568V67.9531H790.635ZM788.393 69.9082V70.7969H781.16V69.9082H784.291V68.1035H785.357V69.9082H788.393ZM784.838 71.8086C786.561 71.8086 787.805 72.957 787.818 74.5977C787.805 76.2383 786.561 77.3867 784.838 77.3867C783.102 77.3867 781.844 76.2383 781.857 74.5977C781.844 72.957 783.102 71.8086 784.838 71.8086ZM784.838 72.7109C783.703 72.7109 782.869 73.5039 782.883 74.5977C782.869 75.7051 783.703 76.4844 784.838 76.4707C785.959 76.4844 786.779 75.7051 786.793 74.5977C786.779 73.5039 785.959 72.7109 784.838 72.7109ZM803.076 69.1836V70.4004C803.062 71.8906 803.062 73.5586 802.625 76.0059L801.531 75.8828C801.996 73.5586 801.996 71.8496 801.996 70.4004V70.0723H794.504V69.1836H803.076ZM804.402 77.4961V78.3848H793.328V77.4961H797.676V73.1484H798.729V77.4961H804.402ZM815.463 67.9668V74.7207H814.396V67.9668H815.463ZM809.734 69.6074C809.721 71.2891 811.033 72.8066 812.838 73.3945L812.318 74.2422C810.883 73.7568 809.748 72.7451 809.201 71.4258C808.654 72.8408 807.506 73.9482 806.057 74.4609L805.51 73.6133C807.342 72.9707 808.641 71.3711 808.641 69.6074V68.418H809.734V69.6074ZM815.545 75.4453V76.3203H813.863V79.0684H815.668V79.9434H807.26V79.0684H809.078V76.3203H807.369V75.4453H815.545ZM810.131 79.0684H812.797V76.3203H810.131V79.0684ZM820.795 68.8965C822.449 68.9102 823.639 70.3252 823.816 72.6016H826.537V67.9531H827.604V80.1348H826.537V73.4902H823.83C823.7 75.8691 822.49 77.3594 820.795 77.3594C819.004 77.3594 817.746 75.7188 817.746 73.1348C817.746 70.5508 819.004 68.9102 820.795 68.8965ZM820.795 69.8535C819.592 69.8672 818.771 71.1523 818.771 73.1348C818.771 75.1172 819.592 76.4023 820.795 76.4023C821.984 76.4023 822.818 75.1172 822.818 73.1348C822.818 71.1523 821.984 69.8672 820.795 69.8535ZM833.906 71.2207C833.906 73.4219 835.314 75.6367 837.078 76.4434L836.436 77.3184C835.055 76.6074 833.913 75.1514 833.373 73.4219C832.833 75.2402 831.691 76.7988 830.311 77.5371L829.613 76.6758C831.391 75.8008 832.812 73.4629 832.812 71.2207V69.0059H833.906V71.2207ZM839.703 67.9531V80.1348H838.637V72.9844H835.752V72.1094H838.637V67.9531H839.703ZM856.314 73.9688V74.8574H845.24V73.9688H847.988V72.2598C847.018 71.8838 846.471 71.2617 846.471 70.4414C846.471 69.0059 848.111 68.1855 850.777 68.1855C853.416 68.1855 855.07 69.0059 855.07 70.4414C855.07 71.2549 854.53 71.877 853.566 72.2461V73.9688H856.314ZM850.777 75.7871C853.389 75.7871 854.947 76.5391 854.961 77.9336C854.947 79.3145 853.389 80.0801 850.777 80.0801C848.139 80.0801 846.58 79.3145 846.58 77.9336C846.58 76.5391 848.139 75.7871 850.777 75.7871ZM850.777 76.6074C848.822 76.6211 847.66 77.0996 847.674 77.9336C847.66 78.7539 848.822 79.2461 850.777 79.2461C852.705 79.2461 853.881 78.7539 853.881 77.9336C853.881 77.0996 852.705 76.6211 850.777 76.6074ZM850.777 69.0332C848.795 69.0332 847.564 69.5664 847.578 70.4414C847.564 71.3301 848.795 71.8496 850.777 71.8496C852.746 71.8496 853.977 71.3301 853.977 70.4414C853.977 69.5664 852.746 69.0332 850.777 69.0332ZM849.055 73.9688H852.5V72.5469C851.987 72.6357 851.413 72.6836 850.777 72.6836C850.142 72.6836 849.567 72.6357 849.055 72.5469V73.9688ZM867.389 67.9531V80.1074H866.309V67.9531H867.389ZM863.793 69.2793C863.779 72.7793 862.152 75.8691 858.078 77.8242L857.49 76.9492C860.778 75.3906 862.453 73.0596 862.699 70.1543H858.051V69.2793H863.793ZM879.816 67.9531V80.1074H878.764V73.8184H877.014V79.4785H876.002V68.2266H877.014V72.9023H878.764V67.9531H879.816ZM871.121 69.4434V76.0059C872.331 75.9922 873.616 75.9102 875.1 75.6094L875.236 76.5664C873.541 76.8672 872.146 76.9629 870.807 76.9629H870.055V69.4434H871.121ZM894.555 67.9531V70.5918H896.387V71.4941H894.555V74.1465H893.488V67.9531H894.555ZM891.191 68.6504V73.5039H885.572V68.6504H891.191ZM886.625 69.5254V72.6426H890.152V69.5254H886.625ZM894.555 74.7207V77.6875H887.883V79.082H895.006V79.9434H886.83V76.8672H893.488V75.582H886.803V74.7207H894.555ZM907.475 67.9668V75.5H906.449V72.2051H904.863V75.3086H903.838V68.1582H904.863V71.3164H906.449V67.9668H907.475ZM903.318 69.3477V70.2363H897.084V69.3477H899.682V68.0078H900.748V69.3477H903.318ZM900.215 70.8516C901.76 70.8516 902.812 71.6582 902.826 72.9297C902.812 74.1738 901.76 75.0078 900.215 75.0078C898.684 75.0078 897.604 74.1738 897.617 72.9297C897.604 71.6582 898.684 70.8516 900.215 70.8516ZM900.215 71.6582C899.244 71.6582 898.574 72.1504 898.574 72.9297C898.574 73.6953 899.244 74.2012 900.215 74.2012C901.186 74.2012 901.855 73.6953 901.855 72.9297C901.855 72.1504 901.186 71.6582 900.215 71.6582ZM901.459 76.2793C901.445 77.3184 902.013 78.3984 903.168 79.0137C904.316 78.3438 904.904 77.168 904.918 76.2793V75.8418H905.971V76.2793C905.957 77.4688 906.887 78.6719 908.445 79.1504L907.939 79.9707C906.716 79.5469 905.854 78.7197 905.438 77.7285C905.062 78.6924 904.323 79.6152 903.182 80.0664C902.006 79.6289 901.268 78.7676 900.912 77.7832C900.461 78.7266 899.613 79.5469 898.451 79.9707L897.932 79.1504C899.449 78.6309 900.406 77.3867 900.406 76.2793V75.8418H901.459V76.2793ZM919.082 71.6445V72.5059H910.756V68.4043H911.822V71.6445H919.082ZM920.367 74.1602V75.0352H909.238V74.1602H920.367ZM919.15 78.918V79.8066H910.688V76.2793H911.754V78.918H919.15ZM931.756 67.9531V80.1074H930.717V67.9531H931.756ZM929.268 68.2539V79.4785H928.242V73.5039H925.59V72.6016H928.242V68.2539H929.268ZM926.41 69.457V70.3457H922.869V76.2793C924.619 76.2725 925.727 76.1973 927.039 75.9102L927.148 76.8262C925.74 77.1133 924.551 77.168 922.596 77.1816H921.83V69.457H926.41ZM946.932 67.9531V80.1074H945.865V67.9531H946.932ZM937.033 76.8672C938.072 76.8604 939.262 76.8535 940.492 76.8125V75.4863C939.036 75.3291 938.086 74.502 938.1 73.2852C938.086 71.918 939.262 71.0293 941.012 71.0293C942.762 71.0293 943.951 71.918 943.951 73.2852C943.951 74.4883 943.008 75.3154 941.572 75.4727V76.7715C942.748 76.7236 943.938 76.6348 945.059 76.4844L945.141 77.3047C942.434 77.7422 939.453 77.7832 937.197 77.7832L937.033 76.8672ZM944.744 69.457V70.332H937.293V69.457H940.492V67.9668H941.572V69.457H944.744ZM941.012 71.8633C939.891 71.8633 939.098 72.4375 939.098 73.2852C939.098 74.1328 939.891 74.6797 941.012 74.666C942.146 74.6797 942.926 74.1328 942.926 73.2852C942.926 72.4375 942.146 71.8633 941.012 71.8633ZM629.566 95.2207C629.566 97.3672 630.988 99.5684 632.711 100.416L632.055 101.277C630.715 100.573 629.594 99.1377 629.061 97.4492C628.514 99.2471 627.365 100.778 625.998 101.51L625.314 100.648C627.092 99.7734 628.5 97.4355 628.514 95.2207V93.0059H629.566V95.2207ZM634.898 91.9531V96.8887H636.936V97.8184H634.898V104.107H633.832V91.9531H634.898ZM648.707 98.3926V99.2676H643.758V101.646H642.691V99.2676H637.578V98.3926H648.707ZM647.463 102.945V103.848H639V100.525H640.066V102.945H647.463ZM640.135 92.3496V93.9082H646.15V92.3496H647.217V97.2031H639.068V92.3496H640.135ZM640.135 96.3281H646.15V94.7285H640.135V96.3281ZM653.697 92.5547C655.516 92.541 656.814 93.5391 656.814 95.0293C656.814 96.5059 655.516 97.5312 653.697 97.5176C651.879 97.5312 650.58 96.5059 650.58 95.0293C650.58 93.5391 651.879 92.541 653.697 92.5547ZM653.697 93.4297C652.48 93.416 651.619 94.0859 651.633 95.0293C651.619 95.9863 652.48 96.6426 653.697 96.6289C654.928 96.6426 655.789 95.9863 655.789 95.0293C655.789 94.0859 654.928 93.416 653.697 93.4297ZM659.713 91.9668V104.121H658.66V91.9668H659.713ZM649.664 98.5566C651.947 98.5566 655.064 98.5156 657.771 98.1191L657.84 98.9258C656.678 99.1377 655.468 99.2676 654.299 99.3359V103.738H653.232V99.4043C651.995 99.459 650.826 99.4658 649.814 99.4727L649.664 98.5566ZM671.197 91.9531V96.9023H673.166V97.8047H671.197V104.107H670.131V91.9531H671.197ZM668.053 93.2656C668.053 96.7109 666.439 99.8418 662.475 101.797L661.873 100.949C665.018 99.3838 666.727 97.0459 666.973 94.168H662.434V93.2656H668.053ZM686.906 91.9531V94.8516H688.738V95.7539H686.906V98.5293H685.826V91.9531H686.906ZM683.598 92.7051C683.598 95.7402 681.424 97.8047 677.842 98.6934L677.432 97.8047C680.439 97.0801 682.224 95.542 682.422 93.5801H677.965V92.7051H683.598ZM680.262 99.0898V100.635H685.84V99.0898H686.906V103.943H679.182V99.0898H680.262ZM680.262 103.068H685.84V101.496H680.262V103.068ZM700.619 98.3926V99.2676H695.67V101.646H694.604V99.2676H689.49V98.3926H700.619ZM699.375 102.945V103.848H690.912V100.525H691.979V102.945H699.375ZM692.047 92.3496V93.9082H698.062V92.3496H699.129V97.2031H690.98V92.3496H692.047ZM692.047 96.3281H698.062V94.7285H692.047V96.3281ZM711.256 91.9531V96.7383H712.992V97.6543H711.256V104.107H710.162V91.9531H711.256ZM704.352 95.8223C704.338 97.0459 704.577 98.8369 705.568 100.047C706.532 98.8711 706.744 97.1074 706.758 95.8223V93.0469H707.783V95.8223C707.77 97.4082 708.18 99.5 709.697 100.566L709.014 101.346C708.104 100.689 707.571 99.6162 707.291 98.4473C707.011 99.6436 706.491 100.771 705.555 101.441C704.618 100.758 704.099 99.6094 703.832 98.4199C703.538 99.582 703.019 100.655 702.15 101.318L701.426 100.566C702.902 99.4727 703.326 97.3535 703.34 95.8223V93.0469H704.352V95.8223ZM719.773 94.0586V94.9336H713.676V94.0586H716.205V92.3223H717.271V94.0586H719.773ZM716.725 95.7539C718.256 95.7539 719.35 96.9023 719.363 98.5156C719.35 100.143 718.256 101.305 716.725 101.305C715.207 101.305 714.113 100.143 714.113 98.5156C714.113 96.9023 715.207 95.7539 716.725 95.7539ZM716.725 96.6562C715.768 96.6699 715.07 97.4492 715.07 98.5156C715.07 99.5957 715.768 100.375 716.725 100.361C717.695 100.375 718.406 99.5957 718.406 98.5156C718.406 97.4492 717.695 96.6699 716.725 96.6562ZM724.053 91.9531V104.107H723.027V97.9688H721.414V103.506H720.402V92.2539H721.414V97.0801H723.027V91.9531H724.053ZM730.178 94.5645C730.178 96.2051 731.477 97.6816 733.295 98.2559L732.748 99.1172C731.333 98.6387 730.205 97.6406 729.658 96.3555C729.125 97.7432 727.983 98.8369 726.541 99.3633L725.98 98.502C727.799 97.8594 729.098 96.2871 729.098 94.5645V93.8535H726.254V92.9785H732.98V93.8535H730.178V94.5645ZM735.838 91.9668V100.881H734.771V91.9668H735.838ZM736.221 102.945V103.848H727.99V100.033H729.057V102.945H736.221ZM745.49 95.2207C745.49 97.3672 746.912 99.5684 748.635 100.416L747.979 101.277C746.639 100.573 745.518 99.1377 744.984 97.4492C744.438 99.2471 743.289 100.778 741.922 101.51L741.238 100.648C743.016 99.7734 744.424 97.4355 744.438 95.2207V93.0059H745.49V95.2207ZM750.822 91.9531V96.8887H752.859V97.8184H750.822V104.107H749.756V91.9531H750.822ZM763.592 91.9668V100.949H762.512V96.6152H759.818V95.7129H762.512V91.9668H763.592ZM759.873 92.8965C759.859 96.0137 757.631 98.3926 754.172 99.5273L753.707 98.666C756.51 97.7432 758.458 96 758.697 93.7988H754.322V92.8965H759.873ZM763.906 102.945V103.848H755.854V100.033H756.947V102.945H763.906Z" fill="#1A1D1F"/>
</g>
<g opacity="0.4" filter="url(#filter1_f_1365_4313)">
<rect x="10" y="506" width="362" height="92" rx="8" fill="white" fill-opacity="0.1"/>
<rect x="11" y="507" width="360" height="90" rx="7" stroke="#1A1D1F" stroke-width="2"/>
<g clip-path="url(#clip0_1365_4313)">
<path d="M38 547.35L36.55 546.03C31.4 541.36 28 538.28 28 534.5C28 531.42 30.42 529 33.5 529C35.24 529 36.91 529.81 38 531.09C39.09 529.81 40.76 529 42.5 529C45.58 529 48 531.42 48 534.5C48 538.28 44.6 541.36 39.45 546.04L38 547.35Z" fill="#CD6F52"/>
</g>
<path d="M62.7715 530.184C62.7715 531.889 64.9512 533.418 68.2559 533.787L67.6055 535.264C64.916 534.956 62.7803 533.884 61.752 532.346C60.7324 533.884 58.5967 534.956 55.9336 535.264L55.2656 533.787C58.6055 533.418 60.75 531.889 60.7676 530.184V529.762H62.7715V530.184ZM69.0117 536.055V537.602H62.7188V538.832H67.2012V542.77H58.166V543.93H67.6406V545.424H56.25V541.363H65.2852V540.326H56.2324V538.832H60.7676V537.602H54.5273V536.055H69.0117ZM84.5684 538.533V540.115H78.2578V545.547H76.3242V540.115H70.084V538.533H84.5684ZM83.2324 530.57V532.117H78.4688C78.583 533.857 80.6748 535.527 83.8125 535.932L83.1094 537.461C80.4023 537.083 78.293 535.844 77.3262 534.121C76.3594 535.844 74.25 537.083 71.5781 537.461L70.8398 535.932C73.96 535.527 76.0518 533.857 76.2012 532.117H71.4199V530.57H83.2324ZM98.9473 529.674V539.113H96.9961V535.229H94.2891V533.629H96.9961V529.674H98.9473ZM93.5684 539.518C96.9434 539.518 99 540.625 99 542.541C99 544.457 96.9434 545.564 93.5684 545.564C90.2109 545.564 88.1543 544.457 88.1719 542.541C88.1543 540.625 90.2109 539.518 93.5684 539.518ZM93.5684 541.012C91.3535 541.012 90.1055 541.539 90.1055 542.541C90.1055 543.525 91.3535 544.053 93.5684 544.053C95.7832 544.053 97.0488 543.525 97.0488 542.541C97.0488 541.539 95.7832 541.012 93.5684 541.012ZM91.4766 532.398C91.4766 534.332 92.7598 536.283 95.2207 537.109L94.2363 538.656C92.4697 538.059 91.2129 536.846 90.5273 535.352C89.8242 537.048 88.4971 538.401 86.6074 539.078L85.5879 537.531C88.1367 536.652 89.4902 534.508 89.4902 532.416V532.293H86.1855V530.711H94.7637V532.293H91.4766V532.398ZM111.146 533.488C111.129 536.318 112.553 539.201 115.014 540.379L113.818 541.943C112.096 541.073 110.856 539.395 110.18 537.373C109.485 539.535 108.185 541.328 106.365 542.242L105.17 540.678C107.719 539.465 109.178 536.424 109.195 533.488V530.957H111.146V533.488ZM117.914 529.674V535.896H120.357V537.566H117.914V545.564H115.963V529.674H117.914ZM134.332 529.691V541.346H132.381V536.002H129.322V534.385H132.381V529.691H134.332ZM129.428 530.887C129.428 535.07 126.65 538.217 122.062 539.676L121.236 538.111C124.664 537.021 126.923 535 127.301 532.486H122.062V530.887H129.428ZM134.736 543.666V545.248H123.979V540.168H125.965V543.666H134.736Z" fill="#1A1D1F"/>
<path d="M32.5898 560.486C32.5898 562.004 34.7773 563.152 36.9648 563.426L36.582 564.246C34.668 563.993 32.7949 563.132 32.0293 561.812C31.25 563.132 29.3701 563.993 27.4766 564.246L27.1074 563.426C29.2812 563.152 31.4824 562.004 31.4824 560.486V560.021H32.5898V560.486ZM37.5664 565.039V565.914H32.5488V567.131H36.1445V569.893H28.9258V571.123H36.5137V571.971H27.8594V569.086H35.0918V567.979H27.832V567.131H31.4824V565.914H26.4922V565.039H37.5664ZM44.1289 560.172C46.8359 560.172 48.4219 560.91 48.4219 562.264C48.4219 563.645 46.8359 564.383 44.1289 564.396C41.4219 564.383 39.8223 563.645 39.8223 562.264C39.8223 560.91 41.4219 560.172 44.1289 560.172ZM44.1289 560.979C42.1055 560.979 40.9297 561.471 40.9434 562.264C40.9297 563.111 42.1055 563.576 44.1289 563.576C46.1387 563.576 47.3281 563.111 47.3281 562.264C47.3281 561.471 46.1387 560.979 44.1289 560.979ZM49.666 565.217V566.092H38.5918V565.217H49.666ZM48.2441 567.145V569.865H41.0254V571.123H48.6133V571.971H39.959V569.072H47.1914V567.965H39.9316V567.145H48.2441ZM57.459 560.896C59.25 560.91 60.5215 562.551 60.5352 565.135C60.5215 567.719 59.25 569.359 57.459 569.359C55.6543 569.359 54.3965 567.719 54.3965 565.135C54.3965 562.551 55.6543 560.91 57.459 560.896ZM57.459 561.854C56.2559 561.867 55.4082 563.152 55.4082 565.135C55.4082 567.117 56.2559 568.402 57.459 568.402C58.6758 568.402 59.4961 567.117 59.4961 565.135C59.4961 563.152 58.6758 561.867 57.459 561.854ZM63.6113 559.953V564.807H65.6484V565.736H63.6113V572.107H62.5449V559.953H63.6113ZM72.4434 561.676C72.4297 563.303 74.6035 564.684 76.7227 564.998L76.3262 565.846C74.4258 565.524 72.5801 564.513 71.8418 563.043C71.1035 564.513 69.251 565.524 67.3848 565.846L66.9609 564.998C69.0664 564.684 71.2402 563.303 71.2402 561.676V561.594H67.3438V560.719H76.3262V561.594H72.4434V561.676ZM77.3789 566.885V567.773H72.3477V572.107H71.2949V567.773H66.3047V566.885H77.3789ZM91.584 560.555V561.389C91.584 562.305 91.584 563.487 91.2832 565.08H93.0469V565.969H81.918V565.08H90.2031C90.5107 563.487 90.5176 562.332 90.5176 561.43H83.3262V560.555H91.584ZM91.6797 567.787V572.148H90.5996V568.648H83.0938V567.787H91.6797ZM100.908 561.238V562.113H94.0312V561.238H96.9844V559.844H98.0508V561.238H100.908ZM97.5039 562.742C99.1309 562.742 100.279 563.631 100.279 564.971C100.279 566.324 99.1309 567.213 97.5039 567.213C95.8633 567.213 94.7422 566.324 94.7559 564.971C94.7422 563.631 95.8633 562.742 97.5039 562.742ZM97.5039 563.576C96.4512 563.576 95.7539 564.137 95.7539 564.971C95.7539 565.818 96.4512 566.379 97.5039 566.379C98.5566 566.379 99.2676 565.818 99.2812 564.971C99.2676 564.137 98.5566 563.576 97.5039 563.576ZM104.094 559.953V567.391H103.014V566.105H100.895V565.217H103.014V563.781H100.908V562.906H103.014V559.953H104.094ZM104.094 568.047V571.943H96.1504V568.047H104.094ZM97.2168 568.908V571.068H103.041V568.908H97.2168ZM115.523 559.953V564.971H117.561V565.859H115.523V572.107H114.457V559.953H115.523ZM113.281 561.908V562.797H106.049V561.908H109.18V560.104H110.246V561.908H113.281ZM109.727 563.809C111.449 563.809 112.693 564.957 112.707 566.598C112.693 568.238 111.449 569.387 109.727 569.387C107.99 569.387 106.732 568.238 106.746 566.598C106.732 564.957 107.99 563.809 109.727 563.809ZM109.727 564.711C108.592 564.711 107.758 565.504 107.771 566.598C107.758 567.705 108.592 568.484 109.727 568.471C110.848 568.484 111.668 567.705 111.682 566.598C111.668 565.504 110.848 564.711 109.727 564.711ZM128.047 563.645V564.506H119.721V560.404H120.787V563.645H128.047ZM129.332 566.16V567.035H118.203V566.16H129.332ZM128.115 570.918V571.807H119.652V568.279H120.719V570.918H128.115ZM140.721 559.953V572.107H139.682V559.953H140.721ZM138.232 560.254V571.479H137.207V565.504H134.555V564.602H137.207V560.254H138.232ZM135.375 561.457V562.346H131.834V568.279C133.584 568.272 134.691 568.197 136.004 567.91L136.113 568.826C134.705 569.113 133.516 569.168 131.561 569.182H130.795V561.457H135.375ZM155.432 559.967V562.756H157.277V563.658H155.432V566.83H154.365V559.967H155.432ZM155.432 567.5V571.943H147.734V567.5H155.432ZM148.787 568.348V571.068H154.393V568.348H148.787ZM147.598 560.582V564.998C149.327 564.991 151.111 564.854 153.08 564.451L153.217 565.354C151.152 565.764 149.32 565.9 147.488 565.9H146.518V560.582H147.598ZM168.064 559.967V568.949H166.998V559.967H168.064ZM168.447 570.945V571.848H160.217V568.115H161.283V570.945H168.447ZM162.445 562.797C162.445 564.41 163.744 565.832 165.562 566.393L165.029 567.254C163.601 566.796 162.473 565.825 161.926 564.561C161.393 565.921 160.271 566.974 158.822 567.473L158.275 566.625C160.094 566.037 161.379 564.506 161.379 562.797V562.469H158.576V561.607H161.379V560.021H162.459V561.607H165.234V562.469H162.445V562.797ZM181.203 566.365V567.24H170.129V566.365H181.203ZM179.973 570.945V571.848H171.564V568.307H172.645V570.945H179.973ZM175.666 560.391C178.277 560.377 179.959 561.279 179.959 562.797C179.959 564.314 178.277 565.217 175.666 565.217C173.027 565.217 171.359 564.314 171.359 562.797C171.359 561.279 173.027 560.377 175.666 560.391ZM175.666 561.252C173.711 561.252 172.453 561.84 172.467 562.797C172.453 563.754 173.711 564.342 175.666 564.342C177.607 564.342 178.865 563.754 178.865 562.797C178.865 561.84 177.607 561.252 175.666 561.252ZM191.84 560.486C191.84 562.004 194.027 563.152 196.215 563.426L195.832 564.246C193.918 563.993 192.045 563.132 191.279 561.812C190.5 563.132 188.62 563.993 186.727 564.246L186.357 563.426C188.531 563.152 190.732 562.004 190.732 560.486V560.021H191.84V560.486ZM196.816 565.039V565.914H191.799V567.131H195.395V569.893H188.176V571.123H195.764V571.971H187.109V569.086H194.342V567.979H187.082V567.131H190.732V565.914H185.742V565.039H196.816ZM203.379 560.172C206.086 560.172 207.672 560.91 207.672 562.264C207.672 563.645 206.086 564.383 203.379 564.396C200.672 564.383 199.072 563.645 199.072 562.264C199.072 560.91 200.672 560.172 203.379 560.172ZM203.379 560.979C201.355 560.979 200.18 561.471 200.193 562.264C200.18 563.111 201.355 563.576 203.379 563.576C205.389 563.576 206.578 563.111 206.578 562.264C206.578 561.471 205.389 560.979 203.379 560.979ZM208.916 565.217V566.092H197.842V565.217H208.916ZM207.494 567.145V569.865H200.275V571.123H207.863V571.971H199.209V569.072H206.441V567.965H199.182V567.145H207.494ZM223.545 559.953V572.135H222.465V564.861H218.678V563.973H222.465V559.953H223.545ZM215.205 561.32V568.279C217.058 568.259 218.712 568.163 220.537 567.787L220.674 568.676C218.732 569.072 217.023 569.182 215.055 569.182H214.125V561.32H215.205ZM236.67 567.021V567.91H231.598V572.107H230.545V567.91H225.541V567.021H236.67ZM235.221 560.637V565.367H226.977V560.637H235.221ZM228.029 561.512V564.52H234.154V561.512H228.029ZM247.225 563.576V565.012H252.283V565.9H241.154V565.012H246.172V563.576H247.225ZM251.258 560.336V561.184H247.416C247.505 562.428 249.542 563.337 251.654 563.508L251.299 564.314C249.275 564.123 247.368 563.337 246.719 562.059C246.056 563.337 244.148 564.123 242.111 564.314L241.756 563.508C243.854 563.337 245.892 562.428 246.008 561.184H242.18V560.336H251.258ZM251.23 567.514V568.361H242.207V567.514H246.172V566.365H247.238V567.514H251.23ZM246.705 568.963C249.043 568.963 250.383 569.51 250.383 570.562C250.383 571.629 249.043 572.176 246.705 572.176C244.34 572.176 243.041 571.629 243.041 570.562C243.041 569.51 244.34 568.963 246.705 568.963ZM246.705 569.715C245.064 569.729 244.121 570.002 244.121 570.562C244.121 571.123 245.064 571.438 246.705 571.424C248.359 571.438 249.275 571.123 249.289 570.562C249.275 570.002 248.359 569.729 246.705 569.715ZM256.521 560.896C258.312 560.91 259.584 562.551 259.598 565.135C259.584 567.719 258.312 569.359 256.521 569.359C254.717 569.359 253.459 567.719 253.459 565.135C253.459 562.551 254.717 560.91 256.521 560.896ZM256.521 561.854C255.318 561.867 254.471 563.152 254.471 565.135C254.471 567.117 255.318 568.402 256.521 568.402C257.738 568.402 258.559 567.117 258.559 565.135C258.559 563.152 257.738 561.867 256.521 561.854ZM262.674 559.953V564.807H264.711V565.736H262.674V572.107H261.607V559.953H262.674ZM271.438 562.059V562.934H265.34V562.059H267.869V560.322H268.936V562.059H271.438ZM268.389 563.754C269.92 563.754 271.014 564.902 271.027 566.516C271.014 568.143 269.92 569.305 268.389 569.305C266.871 569.305 265.777 568.143 265.777 566.516C265.777 564.902 266.871 563.754 268.389 563.754ZM268.389 564.656C267.432 564.67 266.734 565.449 266.734 566.516C266.734 567.596 267.432 568.375 268.389 568.361C269.359 568.375 270.07 567.596 270.07 566.516C270.07 565.449 269.359 564.67 268.389 564.656ZM275.717 559.953V572.107H274.691V565.969H273.078V571.506H272.066V560.254H273.078V565.08H274.691V559.953H275.717ZM281.746 563.221C281.746 565.422 283.154 567.637 284.918 568.443L284.275 569.318C282.895 568.607 281.753 567.151 281.213 565.422C280.673 567.24 279.531 568.799 278.15 569.537L277.453 568.676C279.23 567.801 280.652 565.463 280.652 563.221V561.006H281.746V563.221ZM287.543 559.953V572.135H286.477V564.984H283.592V564.109H286.477V559.953H287.543ZM304.195 566.064V566.953H293.08V566.064H298.084V564.191H299.137V566.064H304.195ZM299.15 560.719C299.15 562.332 301.338 563.686 303.484 563.986L303.047 564.848C301.201 564.526 299.376 563.549 298.617 562.141C297.852 563.556 296.02 564.526 294.16 564.848L293.75 563.986C295.896 563.686 298.07 562.332 298.07 560.719V560.145H299.15V560.719ZM302.787 568.143V572.107H301.707V569.004H294.311V568.143H302.787ZM309.24 561.922C309.24 563.576 310.498 565.094 312.262 565.695L311.674 566.543C310.327 566.051 309.268 565.046 308.734 563.781C308.215 565.21 307.135 566.338 305.713 566.885L305.139 566.023C306.957 565.34 308.174 563.713 308.188 561.84V560.582H309.24V561.922ZM314.682 559.953V563.125H316.514V564.027H314.682V567.35H313.615V559.953H314.682ZM310.785 567.664C313.287 567.664 314.791 568.471 314.791 569.865C314.791 571.287 313.287 572.08 310.785 572.08C308.283 572.08 306.752 571.287 306.752 569.865C306.752 568.471 308.283 567.664 310.785 567.664ZM310.785 568.525C308.953 568.525 307.818 569.031 307.832 569.865C307.818 570.727 308.953 571.219 310.785 571.232C312.631 571.219 313.752 570.727 313.752 569.865C313.752 569.031 312.631 568.525 310.785 568.525ZM323.35 562.059V562.934H317.252V562.059H319.781V560.322H320.848V562.059H323.35ZM320.301 563.754C321.832 563.754 322.926 564.902 322.939 566.516C322.926 568.143 321.832 569.305 320.301 569.305C318.783 569.305 317.689 568.143 317.689 566.516C317.689 564.902 318.783 563.754 320.301 563.754ZM320.301 564.656C319.344 564.67 318.646 565.449 318.646 566.516C318.646 567.596 319.344 568.375 320.301 568.361C321.271 568.375 321.982 567.596 321.982 566.516C321.982 565.449 321.271 564.67 320.301 564.656ZM327.629 559.953V572.107H326.604V565.969H324.99V571.506H323.979V560.254H324.99V565.08H326.604V559.953H327.629ZM340.508 569.646V570.549H329.379V569.646H332.141V566.365C331.102 565.825 330.473 564.95 330.473 563.85C330.473 561.963 332.318 560.732 334.916 560.719C337.514 560.732 339.359 561.963 339.359 563.85C339.359 564.93 338.751 565.798 337.746 566.338V569.646H340.508ZM334.916 561.607C332.92 561.594 331.512 562.496 331.512 563.85C331.512 565.203 332.92 566.119 334.916 566.119C336.898 566.119 338.32 565.203 338.32 563.85C338.32 562.496 336.898 561.594 334.916 561.607ZM333.193 569.646H336.666V566.748C336.14 566.892 335.552 566.967 334.916 566.967C334.294 566.967 333.713 566.898 333.193 566.762V569.646Z" fill="#1A1D1F"/>
</g>
<defs>
<filter id="filter0_f_1365_4313" x="599" y="0" width="382" height="140" filterUnits="userSpaceOnUse" color-interpolation-filters="sRGB">
<feFlood flood-opacity="0" result="BackgroundImageFix"/>
<feBlend mode="normal" in="SourceGraphic" in2="BackgroundImageFix" result="shape"/>
<feGaussianBlur stdDeviation="5" result="effect1_foregroundBlur_1365_4313"/>
</filter>
<filter id="filter1_f_1365_4313" x="0" y="496" width="382" height="112" filterUnits="userSpaceOnUse" color-interpolation-filters="sRGB">
<feFlood flood-opacity="0" result="BackgroundImageFix"/>
<feBlend mode="normal" in="SourceGraphic" in2="BackgroundImageFix" result="shape"/>
<feGaussianBlur stdDeviation="5" result="effect1_foregroundBlur_1365_4313"/>
</filter>
<clipPath id="clip0_1365_4313">
<rect width="24" height="24" fill="white" transform="translate(26 526)"/>
</clipPath>
</defs>
</svg>
