<svg width="20" height="20" viewBox="0 0 20 20" fill="none" xmlns="http://www.w3.org/2000/svg">
<path d="M10 20C12.6522 20 15.1957 18.9464 17.0711 17.0711C18.9464 15.1957 20 12.6522 20 10C20 7.34784 18.9464 4.8043 17.0711 2.92893C15.1957 1.05357 12.6522 0 10 0C7.34784 0 4.8043 1.05357 2.92893 2.92893C1.05357 4.8043 0 7.34784 0 10C0 12.6522 1.05357 15.1957 2.92893 17.0711C4.8043 18.9464 7.34784 20 10 20ZM6.875 6.875C7.20652 6.875 7.52446 7.0067 7.75888 7.24112C7.9933 7.47554 8.125 7.79348 8.125 8.125C8.125 8.45652 7.9933 8.77446 7.75888 9.00888C7.52446 9.2433 7.20652 9.375 6.875 9.375C6.54348 9.375 6.22554 9.2433 5.99112 9.00888C5.7567 8.77446 5.625 8.45652 5.625 8.125C5.625 7.79348 5.7567 7.47554 5.99112 7.24112C6.22554 7.0067 6.54348 6.875 6.875 6.875ZM11.875 8.125C11.875 7.79348 12.0067 7.47554 12.2411 7.24112C12.4755 7.0067 12.7935 6.875 13.125 6.875C13.4565 6.875 13.7745 7.0067 14.0089 7.24112C14.2433 7.47554 14.375 7.79348 14.375 8.125C14.375 8.45652 14.2433 8.77446 14.0089 9.00888C13.7745 9.2433 13.4565 9.375 13.125 9.375C12.7935 9.375 12.4755 9.2433 12.2411 9.00888C12.0067 8.77446 11.875 8.45652 11.875 8.125ZM6.875 12.5H13.125C13.6445 12.5 14.0625 12.918 14.0625 13.4375C14.0625 13.957 13.6445 14.375 13.125 14.375H6.875C6.35547 14.375 5.9375 13.957 5.9375 13.4375C5.9375 12.918 6.35547 12.5 6.875 12.5Z" fill="#C9CDD1"/>
</svg>
