<svg width="20" height="20" viewBox="0 0 20 20" fill="none" xmlns="http://www.w3.org/2000/svg">
<path d="M0 10C0 7.34784 1.05357 4.8043 2.92893 2.92893C4.8043 1.05357 7.34784 0 10 0C12.6522 0 15.1957 1.05357 17.0711 2.92893C18.9464 4.8043 20 7.34784 20 10C20 12.6522 18.9464 15.1957 17.0711 17.0711C15.1957 18.9464 12.6522 20 10 20C7.34784 20 4.8043 18.9464 2.92893 17.0711C1.05357 15.1957 0 12.6522 0 10ZM10.5859 13.8281C10.8008 13.7773 11.0195 13.75 11.25 13.75C12.1914 13.75 13.0234 14.2109 13.5352 14.9219C13.8359 15.3438 14.4219 15.4375 14.8438 15.1367C15.2656 14.8359 15.3594 14.25 15.0586 13.8281C14.2109 12.6484 12.8203 11.875 11.25 11.875C10.7617 11.875 10.2891 11.9492 9.84766 12.0898C10.2305 12.5859 10.4922 13.1797 10.5859 13.832V13.8281ZM6.875 9.375C7.20652 9.375 7.52446 9.2433 7.75888 9.00888C7.9933 8.77446 8.125 8.45652 8.125 8.125C8.125 7.79348 7.9933 7.47554 7.75888 7.24112C7.52446 7.0067 7.20652 6.875 6.875 6.875C6.54348 6.875 6.22554 7.0067 5.99112 7.24112C5.7567 7.47554 5.625 7.79348 5.625 8.125C5.625 8.45652 5.7567 8.77446 5.99112 9.00888C6.22554 9.2433 6.54348 9.375 6.875 9.375ZM14.375 8.125C14.375 7.79348 14.2433 7.47554 14.0089 7.24112C13.7745 7.0067 13.4565 6.875 13.125 6.875C12.7935 6.875 12.4755 7.0067 12.2411 7.24112C12.0067 7.47554 11.875 7.79348 11.875 8.125C11.875 8.45652 12.0067 8.77446 12.2411 9.00888C12.4755 9.2433 12.7935 9.375 13.125 9.375C13.4565 9.375 13.7745 9.2433 14.0089 9.00888C14.2433 8.77446 14.375 8.45652 14.375 8.125ZM7.24219 11.4375C7.14844 11.3242 7.01953 11.25 6.875 11.25C6.73047 11.25 6.60156 11.3242 6.50781 11.4375C6.25391 11.7422 6.01562 12.0664 5.79297 12.3984C5.44141 12.9219 5 13.5781 5 14.25C5 15.3555 5.83984 16.25 6.875 16.25C7.91016 16.25 8.75 15.3555 8.75 14.25C8.75 13.5781 8.3125 12.9219 7.95703 12.3984C7.73438 12.0664 7.49219 11.7461 7.24219 11.4375Z" fill="#C9CDD1"/>
</svg>
