<svg width="20" height="20" viewBox="0 0 20 20" fill="none" xmlns="http://www.w3.org/2000/svg">
<path d="M0 10C0 7.34784 1.05357 4.8043 2.92893 2.92893C4.8043 1.05357 7.34784 0 10 0C12.6522 0 15.1957 1.05357 17.0711 2.92893C18.9464 4.8043 20 7.34784 20 10C20 12.6522 18.9464 15.1957 17.0711 17.0711C15.1957 18.9464 12.6522 20 10 20C7.34784 20 4.8043 18.9464 2.92893 17.0711C1.05357 15.1957 0 12.6522 0 10ZM6.30078 14.9258C6.08984 15.4062 6.64062 15.7695 7.125 15.5664C8 15.1953 8.97656 14.9883 10.0039 14.9883C11.0312 14.9883 12.0078 15.1953 12.8828 15.5664C13.3672 15.7695 13.918 15.4062 13.707 14.9258C13.082 13.4961 11.6602 12.5 10.0039 12.5C8.34766 12.5 6.92578 13.5 6.30078 14.9258ZM6.875 10.625C7.56641 10.625 8.125 10.0664 8.125 9.375V9.36328L8.50391 9.48828C8.91406 9.625 9.35547 9.40234 9.49219 8.99609C9.62891 8.58984 9.40625 8.14453 9 8.00781L5.25 6.75781C4.83984 6.62109 4.39844 6.84375 4.26172 7.25C4.125 7.65625 4.34766 8.10156 4.75391 8.23828L5.88281 8.61328C5.72266 8.82422 5.625 9.08594 5.625 9.37109C5.625 10.0625 6.18359 10.6211 6.875 10.6211V10.625ZM14.375 9.375C14.375 9.08984 14.2812 8.82812 14.1172 8.61719L15.2461 8.24219C15.6562 8.10547 15.875 7.66406 15.7383 7.25391C15.6016 6.84375 15.1602 6.625 14.75 6.76172L11 8.01172C10.5898 8.14844 10.3711 8.58984 10.5078 9C10.6445 9.41016 11.0859 9.62891 11.4961 9.49219L11.875 9.36719V9.37891C11.875 10.0703 12.4336 10.6289 13.125 10.6289C13.8164 10.6289 14.375 10.0703 14.375 9.37891V9.375Z" fill="#C9CDD1"/>
</svg>
