<svg width="20" height="20" viewBox="0 0 20 20" fill="none" xmlns="http://www.w3.org/2000/svg">
<path d="M10 20C12.6522 20 15.1957 18.9464 17.0711 17.0711C18.9464 15.1957 20 12.6522 20 10C20 7.34784 18.9464 4.8043 17.0711 2.92893C15.1957 1.05357 12.6522 0 10 0C7.34784 0 4.8043 1.05357 2.92893 2.92893C1.05357 4.8043 0 7.34784 0 10C0 12.6522 1.05357 15.1957 2.92893 17.0711C4.8043 18.9464 7.34784 20 10 20ZM3.96875 12.2656C3.82422 11.7305 4.26172 11.25 4.81641 11.25H15.1836C15.7383 11.25 16.1758 11.7305 16.0312 12.2656C15.3086 14.9219 12.8828 16.875 10 16.875C7.11719 16.875 4.6875 14.9219 3.96875 12.2656ZM5.625 7.5C5.625 7.16848 5.7567 6.85054 5.99112 6.61612C6.22554 6.3817 6.54348 6.25 6.875 6.25C7.20652 6.25 7.52446 6.3817 7.75888 6.61612C7.9933 6.85054 8.125 7.16848 8.125 7.5C8.125 7.83152 7.9933 8.14946 7.75888 8.38388C7.52446 8.6183 7.20652 8.75 6.875 8.75C6.54348 8.75 6.22554 8.6183 5.99112 8.38388C5.7567 8.14946 5.625 7.83152 5.625 7.5ZM13.125 6.25C13.4565 6.25 13.7745 6.3817 14.0089 6.61612C14.2433 6.85054 14.375 7.16848 14.375 7.5C14.375 7.83152 14.2433 8.14946 14.0089 8.38388C13.7745 8.6183 13.4565 8.75 13.125 8.75C12.7935 8.75 12.4755 8.6183 12.2411 8.38388C12.0067 8.14946 11.875 7.83152 11.875 7.5C11.875 7.16848 12.0067 6.85054 12.2411 6.61612C12.4755 6.3817 12.7935 6.25 13.125 6.25Z" fill="#C9CDD1"/>
</svg>
