<svg width="20" height="20" viewBox="0 0 20 20" fill="none" xmlns="http://www.w3.org/2000/svg">
<path d="M10 20C12.6522 20 15.1957 18.9464 17.0711 17.0711C18.9464 15.1957 20 12.6522 20 10C20 7.34784 18.9464 4.8043 17.0711 2.92893C15.1957 1.05357 12.6522 0 10 0C7.34784 0 4.8043 1.05357 2.92893 2.92893C1.05357 4.8043 0 7.34784 0 10C0 12.6522 1.05357 15.1957 2.92893 17.0711C4.8043 18.9464 7.34784 20 10 20ZM7.71484 16.1719C7.41406 16.5938 6.82812 16.6875 6.40625 16.3867C5.98438 16.0859 5.89062 15.5 6.19141 15.0781C7.03906 13.8984 8.42969 13.125 10 13.125C11.5703 13.125 12.957 13.8984 13.8086 15.0781C14.1094 15.5 14.0156 16.0859 13.5938 16.3867C13.1719 16.6875 12.5859 16.5938 12.2852 16.1719C11.7734 15.4609 10.9414 15 10 15C9.05859 15 8.22656 15.4609 7.71484 16.1719ZM8.36328 3.82422C8.66797 4.12891 8.66797 4.625 8.36328 4.92969L8.07422 5.21875C7.12891 6.16406 5.91406 6.78906 4.59766 7.00781L4.5 7.02344C4.07422 7.09375 3.67187 6.80859 3.60156 6.38281C3.53125 5.95703 3.81641 5.55469 4.24219 5.48438L4.33984 5.46875C5.33594 5.30469 6.25391 4.82812 6.96875 4.11719L7.25781 3.82812C7.5625 3.52344 8.05859 3.52344 8.36328 3.82812V3.82422ZM11.6328 4.92969C11.3281 4.625 11.3281 4.12891 11.6328 3.82422C11.9375 3.51953 12.4336 3.51953 12.7383 3.82422L13.0273 4.11328C13.7422 4.82812 14.6602 5.30078 15.6562 5.46484L15.7539 5.48047C16.1797 5.55078 16.4688 5.95312 16.3945 6.37891C16.3203 6.80469 15.9219 7.09375 15.4961 7.01953L15.3984 7.00391C14.082 6.78516 12.8672 6.16016 11.9219 5.21484L11.6328 4.92578V4.92969ZM4.78906 8.71875C4.96484 8.45312 5.30859 8.35938 5.59375 8.50391L8.70312 10.0664C8.91406 10.1719 9.04688 10.3867 9.04688 10.625C9.04688 10.8633 8.91406 11.0781 8.70312 11.1836L5.59375 12.7461C5.30859 12.8867 4.96484 12.7969 4.78906 12.5312C4.61328 12.2656 4.66797 11.9102 4.91016 11.707L6.21094 10.625L4.91406 9.54297C4.67188 9.33984 4.61719 8.98438 4.79297 8.71875H4.78906ZM15.0859 9.54297L13.7891 10.625L15.0859 11.707C15.3281 11.9102 15.3828 12.2656 15.207 12.5312C15.0312 12.7969 14.6875 12.8906 14.4023 12.7461L11.293 11.1836C11.082 11.0781 10.9492 10.8633 10.9492 10.625C10.9492 10.3867 11.082 10.1719 11.293 10.0664L14.4023 8.50391C14.6875 8.36328 15.0312 8.45312 15.207 8.71875C15.3828 8.98438 15.3281 9.33984 15.0859 9.54297Z" fill="#C9CDD1"/>
</svg>
