<svg width="30" height="30" viewBox="0 0 30 30" fill="none" xmlns="http://www.w3.org/2000/svg">
<path d="M5 15C5 12.3478 6.05357 9.8043 7.92893 7.92893C9.8043 6.05357 12.3478 5 15 5C17.6522 5 20.1957 6.05357 22.0711 7.92893C23.9464 9.8043 25 12.3478 25 15C25 17.6522 23.9464 20.1957 22.0711 22.0711C20.1957 23.9464 17.6522 25 15 25C12.3478 25 9.8043 23.9464 7.92893 22.0711C6.05357 20.1957 5 17.6522 5 15ZM11.3008 19.9258C11.0898 20.4062 11.6406 20.7695 12.125 20.5664C13 20.1953 13.9766 19.9883 15.0039 19.9883C16.0312 19.9883 17.0078 20.1953 17.8828 20.5664C18.3672 20.7695 18.918 20.4062 18.707 19.9258C18.082 18.4961 16.6602 17.5 15.0039 17.5C13.3477 17.5 11.9258 18.5 11.3008 19.9258ZM11.875 15.625C12.5664 15.625 13.125 15.0664 13.125 14.375V14.3633L13.5039 14.4883C13.9141 14.625 14.3555 14.4023 14.4922 13.9961C14.6289 13.5898 14.4062 13.1445 14 13.0078L10.25 11.7578C9.83984 11.6211 9.39844 11.8438 9.26172 12.25C9.125 12.6562 9.34766 13.1016 9.75391 13.2383L10.8828 13.6133C10.7227 13.8242 10.625 14.0859 10.625 14.3711C10.625 15.0625 11.1836 15.6211 11.875 15.6211V15.625ZM19.375 14.375C19.375 14.0898 19.2812 13.8281 19.1172 13.6172L20.2461 13.2422C20.6562 13.1055 20.875 12.6641 20.7383 12.2539C20.6016 11.8438 20.1602 11.625 19.75 11.7617L16 13.0117C15.5898 13.1484 15.3711 13.5898 15.5078 14C15.6445 14.4102 16.0859 14.6289 16.4961 14.4922L16.875 14.3672V14.3789C16.875 15.0703 17.4336 15.6289 18.125 15.6289C18.8164 15.6289 19.375 15.0703 19.375 14.3789V14.375Z" fill="#C05A3A"/>
</svg>
