<svg width="30" height="30" viewBox="0 0 30 30" fill="none" xmlns="http://www.w3.org/2000/svg">
<path d="M15 25C17.6522 25 20.1957 23.9464 22.0711 22.0711C23.9464 20.1957 25 17.6522 25 15C25 12.3478 23.9464 9.8043 22.0711 7.92893C20.1957 6.05357 17.6522 5 15 5C12.3478 5 9.8043 6.05357 7.92893 7.92893C6.05357 9.8043 5 12.3478 5 15C5 17.6522 6.05357 20.1957 7.92893 22.0711C9.8043 23.9464 12.3478 25 15 25ZM12.7148 21.1719C12.4141 21.5938 11.8281 21.6875 11.4062 21.3867C10.9844 21.0859 10.8906 20.5 11.1914 20.0781C12.0391 18.8984 13.4297 18.125 15 18.125C16.5703 18.125 17.957 18.8984 18.8086 20.0781C19.1094 20.5 19.0156 21.0859 18.5938 21.3867C18.1719 21.6875 17.5859 21.5938 17.2852 21.1719C16.7734 20.4609 15.9414 20 15 20C14.0586 20 13.2266 20.4609 12.7148 21.1719ZM13.3633 8.82422C13.668 9.12891 13.668 9.625 13.3633 9.92969L13.0742 10.2188C12.1289 11.1641 10.9141 11.7891 9.59766 12.0078L9.5 12.0234C9.07422 12.0938 8.67187 11.8086 8.60156 11.3828C8.53125 10.957 8.81641 10.5547 9.24219 10.4844L9.33984 10.4688C10.3359 10.3047 11.2539 9.82812 11.9688 9.11719L12.2578 8.82812C12.5625 8.52344 13.0586 8.52344 13.3633 8.82812V8.82422ZM16.6328 9.92969C16.3281 9.625 16.3281 9.12891 16.6328 8.82422C16.9375 8.51953 17.4336 8.51953 17.7383 8.82422L18.0273 9.11328C18.7422 9.82812 19.6602 10.3008 20.6562 10.4648L20.7539 10.4805C21.1797 10.5508 21.4688 10.9531 21.3945 11.3789C21.3203 11.8047 20.9219 12.0938 20.4961 12.0195L20.3984 12.0039C19.082 11.7852 17.8672 11.1602 16.9219 10.2148L16.6328 9.92578V9.92969ZM9.78906 13.7188C9.96484 13.4531 10.3086 13.3594 10.5938 13.5039L13.7031 15.0664C13.9141 15.1719 14.0469 15.3867 14.0469 15.625C14.0469 15.8633 13.9141 16.0781 13.7031 16.1836L10.5938 17.7461C10.3086 17.8867 9.96484 17.7969 9.78906 17.5312C9.61328 17.2656 9.66797 16.9102 9.91016 16.707L11.2109 15.625L9.91406 14.543C9.67188 14.3398 9.61719 13.9844 9.79297 13.7188H9.78906ZM20.0859 14.543L18.7891 15.625L20.0859 16.707C20.3281 16.9102 20.3828 17.2656 20.207 17.5312C20.0312 17.7969 19.6875 17.8906 19.4023 17.7461L16.293 16.1836C16.082 16.0781 15.9492 15.8633 15.9492 15.625C15.9492 15.3867 16.082 15.1719 16.293 15.0664L19.4023 13.5039C19.6875 13.3633 20.0312 13.4531 20.207 13.7188C20.3828 13.9844 20.3281 14.3398 20.0859 14.543Z" fill="#7B6A58"/>
</svg>
