<svg width="30" height="30" viewBox="0 0 30 30" fill="none" xmlns="http://www.w3.org/2000/svg">
<path d="M5 15C5 12.3478 6.05357 9.8043 7.92893 7.92893C9.8043 6.05357 12.3478 5 15 5C17.6522 5 20.1957 6.05357 22.0711 7.92893C23.9464 9.8043 25 12.3478 25 15C25 17.6522 23.9464 20.1957 22.0711 22.0711C20.1957 23.9464 17.6522 25 15 25C12.3478 25 9.8043 23.9464 7.92893 22.0711C6.05357 20.1957 5 17.6522 5 15ZM15.5859 18.8281C15.8008 18.7773 16.0195 18.75 16.25 18.75C17.1914 18.75 18.0234 19.2109 18.5352 19.9219C18.8359 20.3438 19.4219 20.4375 19.8438 20.1367C20.2656 19.8359 20.3594 19.25 20.0586 18.8281C19.2109 17.6484 17.8203 16.875 16.25 16.875C15.7617 16.875 15.2891 16.9492 14.8477 17.0898C15.2305 17.5859 15.4922 18.1797 15.5859 18.832V18.8281ZM11.875 14.375C12.2065 14.375 12.5245 14.2433 12.7589 14.0089C12.9933 13.7745 13.125 13.4565 13.125 13.125C13.125 12.7935 12.9933 12.4755 12.7589 12.2411C12.5245 12.0067 12.2065 11.875 11.875 11.875C11.5435 11.875 11.2255 12.0067 10.9911 12.2411C10.7567 12.4755 10.625 12.7935 10.625 13.125C10.625 13.4565 10.7567 13.7745 10.9911 14.0089C11.2255 14.2433 11.5435 14.375 11.875 14.375ZM19.375 13.125C19.375 12.7935 19.2433 12.4755 19.0089 12.2411C18.7745 12.0067 18.4565 11.875 18.125 11.875C17.7935 11.875 17.4755 12.0067 17.2411 12.2411C17.0067 12.4755 16.875 12.7935 16.875 13.125C16.875 13.4565 17.0067 13.7745 17.2411 14.0089C17.4755 14.2433 17.7935 14.375 18.125 14.375C18.4565 14.375 18.7745 14.2433 19.0089 14.0089C19.2433 13.7745 19.375 13.4565 19.375 13.125ZM12.2422 16.4375C12.1484 16.3242 12.0195 16.25 11.875 16.25C11.7305 16.25 11.6016 16.3242 11.5078 16.4375C11.2539 16.7422 11.0156 17.0664 10.793 17.3984C10.4414 17.9219 10 18.5781 10 19.25C10 20.3555 10.8398 21.25 11.875 21.25C12.9102 21.25 13.75 20.3555 13.75 19.25C13.75 18.5781 13.3125 17.9219 12.957 17.3984C12.7344 17.0664 12.4922 16.7461 12.2422 16.4375Z" fill="#5B7FA6"/>
</svg>
