<svg width="30" height="30" viewBox="0 0 30 30" fill="none" xmlns="http://www.w3.org/2000/svg">
<path d="M15 25C17.6522 25 20.1957 23.9464 22.0711 22.0711C23.9464 20.1957 25 17.6522 25 15C25 12.3478 23.9464 9.8043 22.0711 7.92893C20.1957 6.05357 17.6522 5 15 5C12.3478 5 9.8043 6.05357 7.92893 7.92893C6.05357 9.8043 5 12.3478 5 15C5 17.6522 6.05357 20.1957 7.92893 22.0711C9.8043 23.9464 12.3478 25 15 25ZM11.875 11.875C12.2065 11.875 12.5245 12.0067 12.7589 12.2411C12.9933 12.4755 13.125 12.7935 13.125 13.125C13.125 13.4565 12.9933 13.7745 12.7589 14.0089C12.5245 14.2433 12.2065 14.375 11.875 14.375C11.5435 14.375 11.2255 14.2433 10.9911 14.0089C10.7567 13.7745 10.625 13.4565 10.625 13.125C10.625 12.7935 10.7567 12.4755 10.9911 12.2411C11.2255 12.0067 11.5435 11.875 11.875 11.875ZM16.875 13.125C16.875 12.7935 17.0067 12.4755 17.2411 12.2411C17.4755 12.0067 17.7935 11.875 18.125 11.875C18.4565 11.875 18.7745 12.0067 19.0089 12.2411C19.2433 12.4755 19.375 12.7935 19.375 13.125C19.375 13.4565 19.2433 13.7745 19.0089 14.0089C18.7745 14.2433 18.4565 14.375 18.125 14.375C17.7935 14.375 17.4755 14.2433 17.2411 14.0089C17.0067 13.7745 16.875 13.4565 16.875 13.125ZM11.875 17.5H18.125C18.6445 17.5 19.0625 17.918 19.0625 18.4375C19.0625 18.957 18.6445 19.375 18.125 19.375H11.875C11.3555 19.375 10.9375 18.957 10.9375 18.4375C10.9375 17.918 11.3555 17.5 11.875 17.5Z" fill="#E3B85E"/>
</svg>
