<svg width="30" height="30" viewBox="0 0 30 30" fill="none" xmlns="http://www.w3.org/2000/svg">
<path d="M15 25C17.6522 25 20.1957 23.9464 22.0711 22.0711C23.9464 20.1957 25 17.6522 25 15C25 12.3478 23.9464 9.8043 22.0711 7.92893C20.1957 6.05357 17.6522 5 15 5C12.3478 5 9.8043 6.05357 7.92893 7.92893C6.05357 9.8043 5 12.3478 5 15C5 17.6522 6.05357 20.1957 7.92893 22.0711C9.8043 23.9464 12.3478 25 15 25ZM8.96875 17.2656C8.82422 16.7305 9.26172 16.25 9.81641 16.25H20.1836C20.7383 16.25 21.1758 16.7305 21.0312 17.2656C20.3086 19.9219 17.8828 21.875 15 21.875C12.1172 21.875 9.6875 19.9219 8.96875 17.2656ZM10.625 12.5C10.625 12.1685 10.7567 11.8505 10.9911 11.6161C11.2255 11.3817 11.5435 11.25 11.875 11.25C12.2065 11.25 12.5245 11.3817 12.7589 11.6161C12.9933 11.8505 13.125 12.1685 13.125 12.5C13.125 12.8315 12.9933 13.1495 12.7589 13.3839C12.5245 13.6183 12.2065 13.75 11.875 13.75C11.5435 13.75 11.2255 13.6183 10.9911 13.3839C10.7567 13.1495 10.625 12.8315 10.625 12.5ZM18.125 11.25C18.4565 11.25 18.7745 11.3817 19.0089 11.6161C19.2433 11.8505 19.375 12.1685 19.375 12.5C19.375 12.8315 19.2433 13.1495 19.0089 13.3839C18.7745 13.6183 18.4565 13.75 18.125 13.75C17.7935 13.75 17.4755 13.6183 17.2411 13.3839C17.0067 13.1495 16.875 12.8315 16.875 12.5C16.875 12.1685 17.0067 11.8505 17.2411 11.6161C17.4755 11.3817 17.7935 11.25 18.125 11.25Z" fill="#5E9D96"/>
</svg>
